<?xml version="1.0" standalone="no"?>
<!DOCTYPE svg PUBLIC "-//W3C//DTD SVG 20010904//EN"
 "http://www.w3.org/TR/2001/REC-SVG-20010904/DTD/svg10.dtd">
<svg version="1.0" xmlns="http://www.w3.org/2000/svg"
 width="686.000000pt" height="686.000000pt" viewBox="0 0 686.000000 686.000000"
 preserveAspectRatio="xMidYMid meet">
<metadata>
Created by potrace 1.14, written by Peter Selinger 2001-2017
</metadata>
<g transform="translate(0.000000,686.000000) scale(0.100000,-0.100000)"
fill="#000000" stroke="none">
<path d="M3380 6810 c-1 -23 -2 -23 -10 -5 -5 11 -9 14 -9 7 -1 -10 -6 -10
-21 -2 -14 8 -20 8 -20 0 0 -7 -7 -7 -21 1 -15 8 -19 8 -15 0 4 -6 2 -11 -3
-11 -6 0 -11 6 -11 13 0 9 -3 8 -9 -2 -7 -10 -13 -11 -30 -2 -18 10 -21 9 -21
-6 0 -15 -2 -15 -16 3 -8 10 -13 13 -9 7 3 -7 0 -14 -7 -14 -41 -5 -64 -3 -70
5 -4 6 -13 4 -22 -3 -12 -10 -16 -10 -16 -2 0 8 -6 7 -16 -3 -12 -13 -20 -14
-36 -5 -18 10 -20 9 -15 -5 4 -9 4 -16 1 -16 -2 0 -9 10 -14 23 -9 22 -9 22
-10 -3 -1 -23 -1 -24 -12 -6 -10 18 -11 18 -24 -5 -12 -22 -13 -22 -14 -4 0
15 -2 17 -9 6 -6 -9 -10 -10 -12 -2 -3 7 -12 9 -22 6 -9 -4 -14 -11 -11 -16 3
-5 -6 -5 -20 1 -17 6 -27 6 -32 -2 -5 -7 -2 -8 7 -3 12 7 12 5 1 -6 -11 -12
-14 -12 -22 1 -9 13 -10 13 -10 0 0 -13 -1 -13 -10 0 -7 12 -12 12 -22 2 -15
-15 -32 -16 -22 0 4 7 3 8 -4 4 -7 -4 -12 -15 -12 -24 0 -15 -2 -15 -10 -2 -9
13 -10 13 -10 0 0 -9 -3 -11 -8 -5 -4 6 -15 11 -25 11 -13 2 -15 -1 -8 -10 8
-9 5 -12 -12 -12 -12 1 -28 8 -35 16 -11 13 -11 13 -6 -1 3 -10 -1 -19 -10
-22 -9 -4 -16 -2 -16 3 0 6 -5 10 -11 10 -5 0 -7 -5 -3 -11 5 -8 -3 -10 -24
-7 -27 4 -30 2 -19 -10 10 -13 9 -14 -13 -2 -22 11 -23 11 -13 -1 10 -12 7
-14 -15 -13 -15 1 -38 -3 -51 -8 -15 -5 -28 -4 -37 3 -12 9 -13 9 -9 -4 4 -8
1 -18 -6 -23 -8 -4 -10 -3 -5 4 5 8 2 10 -8 6 -9 -3 -13 -11 -9 -17 4 -6 0 -8
-10 -4 -22 8 -49 -2 -41 -15 4 -6 -3 -5 -15 1 -18 10 -21 9 -21 -6 0 -15 -2
-16 -10 -3 -7 12 -10 12 -10 1 0 -7 -6 -11 -15 -8 -8 4 -17 2 -20 -4 -4 -5
-11 -6 -17 -3 -7 4 -8 2 -4 -4 5 -8 -1 -12 -17 -12 -14 0 -30 -6 -37 -14 -6
-8 -17 -13 -24 -10 -8 3 -16 -2 -19 -10 -9 -22 -28 -20 -21 2 2 9 -1 7 -8 -6
-8 -16 -18 -22 -30 -18 -15 3 -17 1 -8 -8 8 -10 4 -13 -17 -12 -14 0 -28 -5
-31 -13 -3 -9 0 -11 8 -6 9 5 11 4 6 -4 -6 -9 -11 -9 -21 -1 -7 6 -15 7 -17 3
-1 -4 -15 -18 -29 -31 -20 -17 -29 -20 -34 -11 -6 8 -4 10 5 4 9 -6 11 -4 5 5
-6 10 -13 7 -27 -11 -11 -13 -17 -19 -14 -12 4 6 2 15 -4 18 -6 4 -10 3 -9 -2
4 -20 -2 -34 -12 -28 -6 4 -17 -1 -25 -11 -9 -11 -13 -14 -10 -7 4 6 1 15 -5
19 -7 4 -9 3 -5 -4 3 -6 2 -13 -4 -17 -6 -4 -8 -11 -5 -16 3 -5 -1 -6 -9 -3
-10 4 -16 1 -16 -7 0 -11 -3 -11 -10 1 -8 13 -10 13 -10 -2 0 -9 -5 -20 -12
-24 -7 -5 -8 -3 -3 7 7 11 6 12 -6 2 -12 -10 -18 -10 -30 0 -12 10 -12 10 -1
-3 16 -19 15 -33 -2 -27 -21 8 -28 -4 -14 -22 7 -9 2 -7 -11 4 -14 11 -21 14
-17 8 5 -9 1 -13 -11 -13 -15 0 -16 -2 -3 -10 13 -8 12 -10 -3 -10 -10 0 -33
-11 -51 -25 -18 -14 -36 -22 -40 -18 -4 4 -9 -3 -13 -16 -4 -17 -8 -19 -14 -9
-7 10 -9 9 -9 -4 0 -9 -5 -20 -12 -24 -6 -4 -8 -3 -4 4 3 6 2 14 -4 17 -6 4
-9 1 -8 -7 2 -7 -2 -12 -9 -11 -7 2 -10 -3 -7 -11 5 -14 -25 -38 -43 -35 -20
3 -25 -2 -14 -15 9 -11 7 -13 -10 -12 -12 0 -24 -5 -27 -13 -3 -9 0 -11 9 -6
8 5 11 4 6 -1 -5 -5 -13 -10 -18 -10 -5 -1 -14 -2 -20 -3 -5 0 -7 -7 -3 -13 5
-9 2 -8 -9 1 -10 8 -20 11 -24 7 -3 -3 -1 -6 5 -6 7 0 12 -5 12 -10 0 -6 -6
-9 -12 -8 -7 2 -12 -3 -10 -11 2 -9 -3 -11 -14 -7 -15 6 -15 4 -3 -10 13 -16
12 -16 -9 -5 -18 9 -22 9 -20 -1 2 -7 -2 -12 -9 -11 -8 2 -10 -4 -6 -14 4 -11
3 -14 -5 -9 -7 4 -12 2 -12 -5 0 -7 -3 -9 -7 -6 -3 4 -11 -3 -18 -16 -8 -15
-8 -24 -1 -30 6 -5 0 -5 -13 -2 -16 5 -21 4 -17 -4 5 -7 1 -9 -8 -5 -10 4 -16
1 -16 -9 0 -9 -5 -19 -12 -23 -7 -5 -8 -2 -3 7 4 8 -6 -1 -24 -19 -33 -35 -39
-47 -18 -37 6 4 1 -3 -13 -14 -14 -11 -30 -19 -37 -16 -7 2 -15 -1 -19 -7 -4
-6 -3 -8 4 -4 6 3 13 2 17 -4 3 -5 -3 -10 -13 -10 -23 0 -45 -23 -34 -35 4 -4
-6 -5 -22 -1 -26 6 -27 6 -12 -9 21 -21 20 -25 -3 -20 -15 3 -18 -1 -14 -18 4
-18 3 -19 -6 -7 -10 13 -11 13 -12 0 -1 -8 -1 -18 0 -22 0 -5 -8 -8 -20 -8
-15 0 -19 -5 -15 -15 5 -13 -4 -19 -25 -17 -4 1 -6 -6 -5 -16 0 -10 -6 -16
-16 -16 -10 1 -16 -2 -13 -6 8 -13 -6 -40 -21 -40 -8 0 -14 -5 -14 -11 0 -5 6
-7 13 -3 9 6 8 3 -1 -8 -8 -10 -21 -14 -30 -11 -9 3 -14 3 -10 -2 4 -4 0 -14
-10 -22 -11 -10 -12 -12 -2 -8 8 4 2 -5 -14 -18 -16 -14 -26 -29 -22 -35 4 -6
-4 -9 -18 -8 -24 3 -28 -7 -13 -31 6 -9 3 -11 -10 -6 -16 6 -16 5 -4 -10 12
-15 12 -17 -1 -12 -8 3 -21 -2 -29 -12 -13 -16 -12 -17 4 -4 15 12 17 12 11
-3 -3 -9 -14 -16 -23 -16 -14 0 -14 -2 -1 -11 12 -8 8 -9 -15 -6 -27 5 -28 4
-11 -9 17 -12 18 -14 2 -20 -13 -5 -14 -9 -5 -20 10 -12 8 -13 -6 -7 -15 5
-17 3 -12 -12 6 -15 5 -16 -8 -5 -13 11 -14 10 -9 -5 5 -13 4 -16 -4 -11 -8 5
-10 1 -5 -10 5 -12 3 -15 -6 -9 -10 6 -11 3 -2 -13 9 -18 8 -19 -12 -15 -22 4
-22 4 -2 -12 20 -17 20 -17 -2 -11 -12 4 -24 2 -29 -5 -4 -7 -3 -9 4 -5 6 4
10 -1 9 -13 -1 -15 -4 -17 -14 -10 -9 8 -11 6 -8 -11 3 -16 0 -20 -11 -16 -8
3 -13 2 -9 -3 3 -5 2 -11 -2 -14 -5 -2 -3 -2 4 -1 7 2 15 -2 19 -8 4 -6 3 -8
-3 -5 -6 4 -19 -1 -29 -9 -10 -9 -12 -13 -4 -9 10 4 9 2 -2 -8 -23 -18 -23
-28 0 -20 9 3 14 3 10 -1 -5 -6 -14 -9 -48 -15 -3 -1 1 -5 8 -10 10 -6 9 -11
-4 -22 -15 -12 -17 -12 -9 0 5 10 4 12 -4 7 -9 -6 -9 -11 -1 -21 12 -14 -11
-40 -25 -27 -4 4 -2 -4 5 -18 13 -24 12 -24 -5 -10 -17 14 -18 14 -6 -8 9 -17
9 -22 0 -20 -7 2 -15 -6 -17 -17 -2 -11 -11 -26 -20 -33 -10 -7 -18 -22 -18
-32 -3 -46 -4 -51 -13 -46 -5 3 -12 -1 -15 -10 -4 -10 -2 -13 7 -8 6 4 2 -4
-10 -17 -16 -17 -19 -29 -12 -40 6 -12 4 -21 -6 -29 -8 -7 -12 -16 -9 -21 3
-5 -3 -6 -13 -2 -16 6 -17 5 -3 -12 12 -15 12 -17 1 -10 -11 6 -13 4 -8 -8 3
-9 0 -18 -8 -21 -9 -3 -12 -12 -8 -22 4 -12 3 -15 -5 -10 -8 5 -10 1 -5 -10 4
-10 2 -15 -4 -11 -5 3 -10 0 -10 -8 0 -8 4 -12 9 -9 4 3 8 0 8 -5 0 -6 -7 -11
-15 -11 -8 0 -12 -6 -9 -13 3 -8 -2 -19 -10 -26 -12 -10 -13 -18 -5 -32 7 -15
7 -19 -3 -17 -7 2 -12 -3 -11 -9 2 -7 -2 -13 -8 -13 -8 0 -8 -4 0 -14 9 -11 8
-15 -6 -20 -15 -6 -15 -8 -3 -16 12 -8 12 -10 -2 -15 -13 -5 -15 -12 -8 -31 5
-13 6 -23 2 -21 -4 1 -7 0 -7 -3 0 -3 -8 -16 -18 -30 -19 -27 -22 -45 -7 -35
6 3 7 -1 4 -9 -3 -9 -11 -13 -17 -9 -6 4 -7 1 -3 -6 5 -7 15 -10 23 -7 8 3 11
1 8 -4 -3 -6 -12 -10 -19 -10 -8 0 -12 -11 -11 -30 1 -18 -4 -31 -14 -36 -14
-5 -13 -7 4 -14 16 -7 17 -9 3 -9 -9 -1 -20 -6 -24 -12 -4 -8 1 -9 17 -4 21 7
21 5 -6 -20 -17 -15 -23 -23 -15 -17 13 9 15 6 15 -14 -1 -14 -7 -29 -14 -34
-8 -4 -13 -28 -14 -54 0 -25 -5 -46 -11 -47 -6 0 -2 -4 9 -9 16 -7 17 -9 3 -9
-9 -1 -20 -6 -24 -13 -4 -6 -3 -8 3 -5 6 4 14 0 17 -9 3 -8 2 -12 -3 -9 -5 3
-12 1 -16 -5 -3 -5 -1 -10 6 -10 8 0 7 -5 -2 -17 -8 -9 -9 -14 -3 -10 6 3 11
0 11 -8 0 -8 -4 -12 -8 -10 -12 8 -17 -33 -6 -44 8 -8 8 -11 0 -11 -8 0 -9 -9
-3 -29 6 -22 4 -33 -9 -45 -13 -13 -13 -18 -3 -25 14 -9 13 -32 -3 -43 -7 -5
-7 -10 0 -15 6 -5 10 -18 11 -30 0 -18 -2 -20 -13 -11 -11 8 -12 7 -7 -6 3 -9
10 -16 15 -16 5 0 9 -5 9 -11 0 -5 -6 -7 -13 -3 -8 5 -8 2 2 -9 10 -13 10 -17
1 -17 -9 0 -9 -4 1 -17 12 -15 12 -16 -1 -8 -13 8 -13 7 -1 -9 13 -15 13 -19
0 -27 -12 -8 -12 -10 1 -19 13 -9 13 -10 0 -11 -10 0 -8 -3 5 -9 13 -6 15 -9
5 -9 -15 -1 -25 -51 -10 -51 13 0 20 -29 8 -36 -6 -4 -8 -3 -4 4 3 6 2 13 -3
16 -11 7 -9 -14 4 -34 12 -19 13 -28 3 -63 -6 -23 -4 -26 6 -18 9 8 12 6 11
-7 0 -9 -4 -23 -9 -30 -4 -8 -1 -12 11 -13 16 0 16 -1 -2 -9 -13 -6 -15 -9 -5
-9 13 -1 13 -2 0 -11 -13 -9 -13 -10 0 -10 13 0 13 -1 0 -10 -13 -8 -12 -10 3
-10 9 0 17 -5 17 -11 0 -6 -6 -9 -14 -6 -12 5 -13 1 -1 -26 21 -51 27 -109 13
-120 -9 -6 -8 -7 4 -3 20 6 34 -10 16 -17 -10 -4 -9 -8 2 -17 12 -9 12 -13 2
-17 -10 -4 -9 -9 5 -20 10 -8 13 -12 6 -9 -7 4 -9 -1 -6 -14 3 -11 10 -17 17
-13 7 4 7 2 -1 -7 -9 -10 -8 -16 3 -28 13 -12 13 -16 2 -23 -10 -7 -9 -9 3 -9
13 0 16 -9 15 -41 -1 -22 3 -43 8 -47 10 -6 12 -14 18 -64 1 -10 7 -18 13 -18
5 0 3 -5 -5 -10 -13 -8 -12 -12 4 -27 19 -17 19 -17 5 2 -13 18 -13 19 3 6 14
-10 15 -17 7 -33 -8 -15 -8 -19 0 -14 15 10 14 -17 -1 -33 -11 -10 -9 -11 6
-5 13 5 17 4 12 -4 -4 -7 -2 -12 4 -12 7 0 9 -7 6 -16 -6 -15 -4 -15 11 -3 14
12 16 12 8 0 -4 -8 -9 -24 -11 -37 -1 -17 2 -22 15 -19 10 2 18 -3 18 -11 0
-9 -6 -13 -15 -9 -12 4 -13 3 -2 -10 7 -8 16 -13 20 -10 5 3 12 0 16 -6 4 -8
3 -9 -4 -5 -16 10 -15 -7 1 -23 9 -11 9 -13 0 -7 -21 12 -15 -2 15 -30 15 -15
19 -22 9 -14 -15 11 -17 11 -11 -4 3 -9 11 -16 17 -16 6 0 2 -7 -9 -15 -18
-13 -18 -14 5 -8 22 6 23 3 19 -24 -4 -26 -1 -30 16 -26 12 2 15 0 8 -3 -10
-5 -9 -11 5 -27 10 -11 12 -17 4 -12 -9 5 -12 3 -9 -6 3 -8 14 -13 24 -12 10
1 13 0 7 -3 -18 -8 -16 -24 2 -24 8 0 15 -5 15 -11 0 -5 -4 -8 -8 -5 -5 3 -9
-1 -9 -8 0 -8 6 -12 14 -9 9 3 11 0 8 -10 -4 -8 1 -22 10 -31 9 -9 13 -21 9
-28 -5 -8 0 -7 11 2 17 14 18 14 8 -4 -13 -24 23 -100 44 -92 10 4 11 1 3 -14
-9 -16 -8 -18 5 -14 10 4 15 0 15 -11 0 -10 -5 -14 -13 -9 -6 4 -1 -5 12 -19
13 -15 28 -24 33 -21 5 3 8 2 7 -3 -5 -28 4 -52 24 -62 12 -6 15 -10 6 -7 -9
2 -16 -2 -16 -10 0 -7 4 -11 9 -8 14 9 35 -20 32 -46 -1 -14 0 -19 2 -12 3 6
10 12 15 12 6 0 7 -5 4 -10 -3 -6 1 -13 9 -16 22 -8 20 -25 -1 -18 -10 4 -3
-3 14 -15 18 -11 33 -24 33 -27 0 -4 -8 0 -17 7 -15 11 -16 11 -6 0 6 -7 10
-19 9 -25 -2 -6 -1 -8 1 -3 8 13 23 7 23 -9 0 -9 5 -12 12 -8 9 5 8 2 -1 -9
-8 -10 -11 -20 -7 -24 3 -3 6 -1 6 5 0 7 5 12 11 12 5 0 7 -4 4 -10 -3 -5 -1
-10 6 -10 6 0 9 -8 6 -20 -3 -11 -1 -17 4 -14 5 3 23 -6 40 -20 17 -14 27 -26
23 -26 -4 0 -16 8 -26 17 -15 14 -18 14 -13 2 3 -9 20 -23 38 -33 27 -14 28
-16 7 -11 -24 4 -23 4 2 -7 16 -7 28 -20 28 -29 0 -10 5 -21 12 -25 7 -5 8 -3
3 7 -8 12 -6 12 8 0 9 -7 17 -19 17 -26 0 -7 7 -16 16 -19 8 -3 12 -11 9 -16
-4 -6 -1 -9 7 -8 7 2 12 -3 10 -10 -1 -8 6 -16 17 -19 17 -4 35 -36 32 -56 -1
-5 3 -6 9 -2 5 3 16 2 24 -2 14 -8 16 -12 16 -33 0 -5 7 -7 15 -4 11 5 13 2 9
-10 -4 -11 -2 -16 7 -14 8 2 13 -3 11 -11 -3 -12 0 -12 12 -2 12 10 14 9 9
-11 -4 -18 -3 -20 6 -8 9 13 11 13 11 -2 0 -9 9 -20 20 -23 11 -4 18 -11 15
-16 -6 -9 8 -13 34 -9 11 1 12 -1 4 -12 -9 -10 -6 -20 13 -41 13 -15 24 -25
24 -21 0 4 -8 16 -17 26 -15 17 -15 18 -1 13 9 -4 21 -20 27 -36 5 -16 13 -29
16 -29 3 0 4 4 1 8 -3 5 1 9 9 9 10 0 11 -5 5 -17 -7 -14 -5 -17 13 -15 32 2
40 -5 25 -23 -7 -10 -9 -14 -4 -10 10 8 36 -14 29 -24 -2 -4 3 -5 11 -2 17 7
79 -49 68 -61 -4 -5 -1 -5 6 -1 7 4 15 1 18 -9 5 -12 10 -13 20 -4 10 8 12 6
9 -11 -4 -18 -2 -20 11 -9 12 10 13 9 8 -5 -4 -11 -2 -15 8 -11 8 3 21 -2 29
-12 13 -17 13 -17 -6 -3 -19 14 -19 14 -6 -3 7 -9 19 -17 27 -17 17 0 64 -47
55 -56 -3 -4 0 -4 8 1 9 5 19 2 28 -10 9 -13 13 -15 13 -5 0 9 6 5 16 -8 9
-13 22 -21 30 -18 13 5 19 -6 15 -28 -1 -5 4 -4 13 3 10 8 16 9 21 1 3 -6 11
-8 16 -4 5 3 9 2 8 -3 -1 -4 -1 -15 0 -23 1 -13 2 -13 12 0 9 12 10 11 6 -7
-4 -19 -2 -21 13 -13 24 13 40 13 20 0 -12 -8 -11 -10 6 -10 11 0 30 -12 43
-26 12 -14 29 -23 36 -20 9 3 12 0 8 -10 -3 -10 0 -12 10 -8 8 3 24 -2 36 -12
11 -10 30 -19 41 -21 12 -2 28 -10 36 -17 8 -8 23 -18 34 -21 11 -4 18 -11 15
-16 -3 -5 1 -6 10 -3 14 6 14 8 -2 21 -17 13 -16 13 4 3 12 -5 29 -20 37 -32
9 -12 16 -18 16 -12 0 6 7 11 15 11 11 0 12 -4 5 -11 -5 -5 -10 -15 -10 -20 0
-6 4 -5 9 3 7 11 13 11 37 -1 16 -8 28 -20 26 -27 -1 -7 2 -10 8 -6 6 3 7 12
3 18 -3 7 4 3 17 -8 13 -11 20 -15 17 -8 -4 6 -2 15 4 19 8 4 9 3 5 -4 -4 -7
-2 -12 4 -12 6 0 9 -4 6 -9 -3 -5 1 -11 9 -14 9 -4 12 -1 8 9 -5 14 -3 14 15
3 11 -7 19 -16 17 -19 -3 -5 13 -9 53 -12 6 -1 12 -6 12 -11 0 -5 7 -4 15 3
12 10 16 9 21 -4 5 -12 10 -14 19 -6 9 7 16 6 25 -5 7 -8 19 -15 26 -15 8 0
14 -5 14 -11 0 -8 5 -8 15 1 14 11 19 7 16 -12 0 -4 10 -3 24 2 20 7 25 6 25
-5 0 -16 8 -18 53 -15 15 1 27 -3 27 -9 0 -6 5 -11 11 -11 5 0 8 4 5 9 -5 8
22 8 32 1 4 -4 21 -7 40 -9 15 -1 15 -3 2 -11 -8 -5 -10 -10 -5 -10 6 0 17 6
24 12 11 11 12 10 6 -1 -6 -10 -2 -12 14 -6 15 4 20 2 18 -7 -2 -7 -2 -10 0
-5 3 4 11 7 19 7 9 0 13 -4 10 -8 -6 -10 25 -9 42 2 6 4 12 2 12 -3 0 -6 5
-11 11 -11 5 0 7 6 4 13 -4 6 4 1 16 -13 15 -17 20 -19 16 -7 -6 15 -4 16 16
5 27 -15 77 -18 95 -5 8 7 12 4 12 -9 0 -17 1 -17 16 2 8 10 13 14 10 8 -3 -7
1 -14 9 -18 10 -3 15 1 16 12 0 14 2 14 9 -3 5 -11 9 -14 9 -7 1 7 6 10 11 7
6 -4 8 -11 5 -16 -4 -5 -1 -9 4 -9 6 0 11 9 11 21 0 19 1 19 16 5 8 -9 20 -14
25 -11 5 4 9 1 9 -5 0 -7 7 -8 18 -3 27 12 62 9 73 -7 9 -12 10 -11 5 4 -6 17
-5 17 11 5 11 -9 14 -10 9 -1 -4 6 -2 12 3 12 6 0 11 -6 11 -12 0 -8 3 -9 8
-3 13 18 52 16 53 -3 0 -14 2 -14 7 -2 4 8 15 16 24 16 10 1 16 -1 13 -5 -9
-15 54 -4 81 14 l29 18 -20 -23 -20 -23 24 12 c13 7 41 11 62 9 29 -3 39 0 39
11 0 11 4 10 15 -5 14 -19 14 -19 15 1 0 15 2 17 9 6 6 -9 11 -10 15 -2 4 6
13 11 19 11 7 0 6 -4 -3 -10 -8 -5 -10 -10 -4 -10 6 0 14 3 18 7 10 10 46 11
40 1 -3 -4 -1 -8 5 -8 5 0 11 4 13 9 2 6 37 12 78 14 45 2 76 9 78 16 3 9 7 9
18 0 11 -9 14 -9 14 0 0 12 36 11 57 -2 9 -6 11 -3 6 10 -3 10 -2 15 2 10 5
-4 17 1 27 10 11 10 19 13 18 8 -5 -21 1 -27 14 -16 8 6 18 11 22 10 23 -4 45
2 39 10 -3 5 -1 13 5 16 6 4 10 3 9 -2 -3 -19 2 -27 9 -15 5 7 18 14 31 17 12
2 19 0 16 -5 -3 -5 0 -12 6 -16 7 -4 10 -3 6 2 -3 5 2 18 10 29 13 16 15 17
10 3 -4 -10 -2 -18 3 -18 6 0 10 4 10 10 0 5 7 6 17 3 12 -5 14 -3 8 8 -7 11
-5 11 10 -1 17 -14 18 -13 13 2 -6 14 -2 15 22 8 20 -6 32 -4 45 9 10 9 15 11
11 4 -4 -7 0 -10 11 -8 10 2 22 4 27 4 4 1 6 7 3 14 -3 7 3 13 14 13 14 0 16
-3 6 -16 -8 -10 -5 -10 9 2 11 10 30 16 41 13 16 -2 20 0 16 11 -3 8 0 14 6
14 6 0 11 -5 11 -11 0 -8 5 -7 15 1 9 7 13 20 10 29 -3 9 4 5 15 -9 11 -14 18
-18 15 -9 -4 10 0 19 10 23 11 4 14 2 10 -7 -4 -6 0 -4 8 5 8 10 18 14 22 10
5 -4 5 2 1 12 -5 14 -3 16 6 9 28 -22 55 -10 48 22 -1 5 7 1 18 -8 19 -18 20
-18 18 0 -1 13 5 17 23 15 17 -2 22 2 17 13 -4 13 -2 14 14 5 17 -9 19 -8 13
7 -6 15 -4 16 9 6 12 -10 22 -9 50 5 19 9 33 22 31 28 -2 6 3 11 11 11 8 0 13
-5 10 -11 -3 -6 3 -1 14 11 11 12 22 19 26 16 3 -3 12 0 20 6 8 7 19 10 23 8
5 -3 17 1 28 9 10 8 15 15 9 15 -5 1 5 4 21 8 20 5 30 12 29 24 -2 14 1 15 11
7 10 -8 15 -8 20 0 4 6 16 8 28 4 22 -6 22 -6 2 11 -11 9 -15 14 -9 11 6 -3
22 1 37 9 14 7 28 11 30 8 3 -2 8 5 12 17 4 13 18 23 36 27 17 3 28 11 26 17
-3 7 8 11 27 11 23 0 31 4 30 17 -1 9 4 14 11 12 7 -3 15 2 18 10 4 9 13 16
22 16 8 0 15 5 15 10 0 6 5 10 11 10 5 0 7 -6 3 -12 -4 -7 2 -4 13 7 11 11 19
23 17 27 -7 12 14 19 22 7 5 -8 3 -9 -6 -4 -9 6 -11 4 -5 -4 9 -16 58 27 51
46 -3 7 -1 13 4 13 6 0 10 -4 10 -10 0 -5 5 -10 11 -10 5 0 8 4 5 9 -3 5 1 11
9 15 8 3 15 12 15 20 0 14 16 16 36 3 7 -4 11 1 10 15 0 12 5 23 13 26 9 3 11
0 6 -8 -5 -9 -4 -11 4 -6 6 4 9 12 6 17 -4 5 -1 9 5 9 6 0 8 5 4 13 -6 9 -4 9
8 -1 14 -12 16 -10 11 10 -3 17 -2 19 5 9 7 -9 12 -10 16 -2 4 6 4 11 0 11 -4
0 1 6 11 14 11 8 24 12 29 8 5 -3 7 2 3 11 -3 9 -3 16 1 15 10 -2 62 20 62 26
0 3 -8 3 -17 0 -17 -5 -17 -5 0 6 9 6 22 8 27 5 6 -4 7 1 3 11 -4 12 -3 15 5
10 7 -4 12 -1 12 8 0 8 5 18 12 22 6 4 8 3 5 -3 -3 -5 0 -10 7 -10 8 0 12 10
10 24 -2 19 0 21 17 13 14 -8 17 -7 14 2 -7 18 9 39 31 42 11 2 18 10 16 20
-3 19 9 21 27 4 11 -11 11 -9 1 12 -12 23 -12 24 3 12 14 -12 16 -11 12 7 -2
14 1 21 11 21 9 0 12 5 8 12 -5 8 -2 9 10 5 10 -4 15 -3 11 3 -3 6 -1 10 5 10
6 0 9 3 6 8 -2 4 3 16 11 27 15 19 15 19 9 -5 -6 -22 -5 -22 4 -7 7 10 9 25 6
34 -5 12 -4 13 7 5 19 -16 30 -3 14 16 -9 13 -9 14 1 8 8 -5 12 -1 12 11 0 13
2 15 9 5 6 -10 11 -9 22 4 12 16 12 17 -1 10 -8 -4 -5 1 7 12 12 11 19 22 16
26 -3 3 1 14 10 24 10 10 14 21 11 25 -3 3 5 3 18 0 18 -4 20 -3 8 6 -13 9
-12 11 4 11 16 0 17 2 5 17 -13 15 -12 15 7 5 16 -9 21 -8 21 3 0 8 -5 12 -11
9 -6 -3 -1 3 11 14 12 11 19 23 15 27 -4 5 1 5 11 2 10 -4 16 -3 12 2 -3 5 0
13 6 16 5 4 8 14 5 22 -4 9 -2 11 6 7 7 -5 9 -1 6 13 -3 12 0 20 7 20 7 0 11
-7 8 -16 -4 -12 -3 -13 5 -3 5 8 8 24 6 38 -2 21 0 23 19 13 18 -9 20 -9 10 1
-10 11 -9 16 5 26 16 12 16 13 -3 15 -17 1 -16 2 4 8 14 4 26 13 29 21 3 13 2
13 -7 0 -8 -11 -11 -12 -11 -2 0 8 9 16 20 19 11 3 17 9 14 14 -3 5 -10 6 -16
3 -7 -4 -8 -2 -4 5 4 6 12 8 18 5 8 -5 9 -1 4 11 -5 15 -4 16 9 5 13 -11 14
-10 9 5 -6 14 -4 16 6 10 8 -5 11 -4 7 3 -9 13 2 44 13 37 5 -3 11 -1 15 5 3
5 0 10 -7 10 -8 0 -6 5 5 11 15 9 16 13 5 27 -9 10 -9 13 -1 9 14 -9 32 20 28
45 -2 12 2 15 13 10 15 -5 15 -4 3 11 -12 16 -12 17 5 10 17 -6 18 -5 5 11
-12 15 -12 17 0 14 8 -2 13 3 11 11 -2 9 3 11 15 7 16 -5 16 -5 2 6 -16 13
-15 38 2 38 6 0 7 -6 3 -12 -4 -7 -3 -10 1 -5 15 13 16 50 3 60 -9 6 -8 7 5 3
12 -4 17 0 17 14 0 11 10 29 23 41 12 12 16 19 10 15 -7 -4 -13 -3 -13 2 0 6
7 13 16 16 9 4 14 9 11 13 -4 3 -1 13 6 21 8 11 9 14 0 9 -8 -5 -10 0 -7 19 3
18 1 23 -7 18 -8 -4 -9 -3 -5 5 6 9 11 9 24 -1 13 -11 15 -10 10 9 -4 16 -2
23 8 23 8 0 14 5 14 11 0 6 -8 8 -17 5 -17 -6 -17 -5 0 8 9 7 17 21 17 30 0 9
5 16 12 16 6 0 3 7 -8 15 -13 10 -14 13 -3 10 9 -3 22 2 30 11 9 12 10 15 2
10 -9 -5 -13 0 -13 14 0 12 4 19 9 16 5 -4 8 5 6 20 -2 18 1 24 12 20 9 -4 11
-2 6 6 -12 21 -11 50 3 55 10 4 11 10 4 23 -15 28 -12 37 4 14 16 -21 17 0 2
25 -6 10 -5 12 2 7 8 -5 12 4 12 29 0 26 3 34 13 29 7 -5 6 0 -3 11 -13 17
-13 18 0 13 11 -4 16 1 17 14 2 17 0 18 -15 6 -15 -12 -16 -11 -4 4 8 9 11 22
7 28 -4 6 -1 9 6 8 9 -2 13 7 13 25 -1 15 2 27 6 27 4 0 7 7 7 15 0 11 -4 12
-14 4 -9 -8 -13 -8 -13 -1 0 6 10 14 21 17 17 6 19 9 8 16 -12 7 -11 9 1 9 13
0 13 1 0 10 -10 6 -11 10 -2 10 6 0 12 5 12 11 0 5 -6 7 -12 4 -7 -4 -2 3 12
14 23 19 23 20 4 17 -12 -3 -21 1 -21 9 0 8 7 11 16 8 13 -5 13 -3 4 7 -16 17
-5 40 15 33 14 -4 14 -3 3 5 -21 15 -24 45 -4 38 13 -5 14 -4 3 9 -10 12 -10
15 1 16 8 0 5 4 -6 9 -18 8 -18 9 -2 9 15 1 16 4 6 23 -9 17 -9 20 3 16 11 -5
14 3 13 31 -1 20 -5 43 -10 50 -5 10 -4 12 3 7 7 -4 12 -2 12 3 0 6 -4 11 -10
11 -5 0 -7 7 -4 15 4 8 10 15 16 15 5 0 6 -5 2 -12 -5 -7 -3 -8 6 -3 10 6 8
12 -9 27 -14 11 -18 18 -9 18 14 0 17 58 3 81 -5 7 -4 10 3 5 6 -3 13 -2 17 4
3 5 2 10 -4 10 -6 0 -8 7 -4 16 3 9 0 20 -8 25 -11 7 -9 9 6 9 15 0 17 2 6 9
-9 6 -10 11 -2 15 6 4 11 12 11 17 0 6 -5 7 -10 4 -13 -8 -8 17 5 28 6 4 5 10
-4 16 -11 7 -11 9 0 14 9 4 7 6 -6 7 l-20 1 20 9 c11 5 14 9 8 9 -7 1 -13 6
-13 12 0 5 6 7 13 3 9 -6 9 -4 1 7 -21 27 -23 48 -8 64 9 8 11 15 6 15 -9 0
-12 16 -12 58 0 12 -5 22 -10 22 -6 0 -10 5 -10 11 0 5 6 7 13 3 6 -4 3 2 -7
14 -11 12 -16 25 -13 29 4 3 7 0 7 -8 0 -11 2 -11 10 1 13 21 12 33 -2 27 -8
-3 -13 4 -13 19 0 13 6 24 13 24 17 0 15 15 -3 30 -13 11 -13 15 -3 21 9 6 7
9 -7 10 -12 0 -15 3 -7 6 10 4 9 9 -5 19 -10 8 -13 14 -8 13 24 -3 27 2 9 17
-10 8 -13 13 -6 9 15 -8 16 7 0 23 -9 9 -9 12 0 12 19 0 14 20 -5 21 -12 0
-13 2 -5 6 10 4 10 8 0 21 -11 13 -11 14 2 7 13 -8 13 -7 1 8 -8 10 -11 20 -8
24 4 3 -1 11 -10 18 -13 9 -13 14 -3 20 9 6 11 4 5 -5 -5 -9 -4 -11 4 -6 9 6
9 11 1 21 -7 8 -9 19 -6 24 4 6 -3 15 -16 22 -19 10 -20 13 -6 23 17 13 12 40
-5 29 -7 -4 -7 -1 1 9 9 11 10 18 2 23 -5 3 -10 17 -10 31 0 16 -4 23 -11 18
-8 -4 -8 -1 -1 12 13 25 5 44 -16 37 -15 -4 -15 -3 -2 6 12 9 13 12 1 20 -11
7 -11 9 0 13 12 4 12 7 0 21 -7 9 -18 14 -24 10 -6 -3 -7 -1 -3 6 4 6 13 8 19
4 7 -3 4 2 -5 13 -12 13 -14 24 -8 34 5 8 10 20 10 25 0 6 -5 3 -10 -5 -7 -11
-10 -11 -10 -2 0 8 -5 10 -12 6 -9 -5 -9 -2 1 9 11 14 11 17 0 17 -11 0 -11 2
1 10 12 8 12 10 -5 10 -15 0 -16 3 -7 9 11 6 10 11 -3 25 -10 10 -12 16 -5 16
7 0 4 8 -7 18 -10 9 -13 13 -6 8 10 -6 12 -4 7 8 -3 9 -10 16 -16 16 -5 0 -6
5 -3 10 3 6 1 10 -5 10 -8 0 -8 6 0 20 8 16 8 20 -2 18 -12 -3 -14 2 -17 45 0
9 -7 17 -15 17 -9 0 -12 8 -9 24 3 13 -1 27 -8 31 -8 6 -10 4 -4 -6 5 -8 1 -7
-10 3 -16 15 -16 19 -4 34 12 16 12 17 -3 11 -10 -3 -20 -1 -24 5 -4 6 -3 8 4
4 6 -3 13 -2 17 4 3 5 1 10 -5 10 -7 0 -9 9 -5 23 5 17 4 19 -4 7 -9 -13 -11
-12 -11 3 0 10 -4 16 -9 12 -5 -3 -12 -1 -15 4 -4 5 -1 13 5 17 8 5 9 3 4 -6
-5 -9 -4 -11 4 -6 14 9 5 26 -15 26 -8 0 -14 5 -14 11 0 5 5 7 11 4 6 -4 1 11
-10 33 -11 22 -17 43 -13 48 4 5 -2 2 -13 -6 -11 -8 -17 -10 -13 -6 4 5 0 15
-10 22 -15 12 -14 12 8 8 22 -5 23 -4 7 6 -9 6 -14 16 -11 22 5 8 1 9 -10 5
-14 -5 -17 -3 -12 8 3 8 1 15 -4 15 -6 0 -10 5 -10 11 0 7 -8 18 -17 25 -17
13 -17 14 2 8 17 -4 16 -3 -3 8 -17 11 -20 16 -10 26 9 9 7 12 -9 12 -11 0
-24 7 -27 16 -5 14 -4 15 9 4 9 -7 18 -10 22 -6 3 3 2 6 -3 6 -5 0 -20 10 -34
21 -14 11 -18 17 -10 13 12 -7 12 -4 -2 16 -9 14 -21 24 -28 22 -8 -2 -8 3 -1
17 11 19 6 31 -13 31 -6 0 -4 -5 4 -10 13 -8 12 -10 -3 -10 -13 0 -17 6 -15
20 2 13 -8 30 -27 46 -16 14 -25 23 -20 20 6 -2 12 5 12 17 2 18 0 19 -8 7 -8
-11 -12 -12 -16 -2 -2 6 -10 9 -16 5 -7 -4 -5 2 3 12 9 11 10 16 3 11 -8 -4
-13 -1 -13 8 0 9 -7 16 -16 16 -12 0 -15 6 -11 21 4 16 3 18 -7 9 -10 -8 -13
-5 -12 12 1 17 -4 22 -18 20 -11 -2 -15 1 -11 7 3 6 2 11 -4 11 -5 0 -13 9
-16 20 -4 11 -11 18 -16 15 -5 -4 -9 1 -9 9 0 9 -5 16 -11 16 -5 0 -8 4 -5 9
3 4 -7 19 -22 32 l-27 24 25 -30 25 -30 -28 25 c-16 14 -25 30 -22 38 5 12 3
13 -10 2 -9 -7 -18 -10 -22 -6 -3 3 -1 6 5 6 7 0 12 7 12 16 0 8 -4 12 -10 9
-5 -3 -10 -1 -10 5 0 6 -4 8 -10 5 -9 -5 -15 16 -11 38 1 5 -3 6 -9 2 -6 -3
-8 -11 -5 -16 3 -5 -1 -6 -9 -3 -8 3 -13 16 -11 30 2 19 0 22 -11 13 -11 -9
-14 -8 -14 2 0 11 -3 11 -11 -1 -8 -12 -9 -10 -4 8 5 16 2 22 -10 22 -12 0
-16 6 -12 20 3 11 2 18 -2 15 -4 -2 -23 11 -41 30 -18 19 -40 32 -50 30 -13
-2 -16 2 -13 14 3 11 -2 21 -13 25 -14 5 -15 4 -4 -9 11 -13 10 -14 -4 -9 -11
4 -16 14 -13 25 3 10 2 18 -2 17 -24 -3 -41 4 -41 18 0 8 -4 12 -10 9 -9 -6
-14 8 -11 28 1 5 -3 6 -9 2 -6 -3 -7 -12 -3 -18 4 -7 0 -6 -10 2 -9 7 -15 17
-12 21 3 5 0 12 -6 16 -8 4 -9 3 -5 -4 4 -7 3 -12 -2 -12 -6 0 -12 7 -16 15
-3 8 -12 15 -21 15 -8 0 -15 7 -15 15 0 8 -5 15 -11 15 -5 0 -7 5 -3 11 4 7
-1 7 -16 -1 -12 -6 -24 -9 -28 -6 -3 3 0 6 6 6 7 0 12 5 12 11 0 5 -4 7 -10 4
-9 -6 -14 8 -11 28 1 5 -3 6 -9 2 -6 -3 -8 -12 -4 -18 3 -7 -3 -2 -13 10 -10
12 -25 23 -33 25 -20 4 -38 21 -35 33 1 5 0 7 -2 3 -9 -16 -35 -8 -29 8 4 10
1 14 -6 12 -7 -3 -19 3 -28 12 -8 9 -11 10 -6 3 6 -10 4 -12 -8 -7 -14 5 -20
16 -18 34 1 11 -42 9 -57 -3 -9 -7 -12 -8 -8 -1 3 6 -9 25 -28 42 -19 16 -35
25 -35 19 0 -7 -4 -6 -9 3 -6 8 -7 19 -3 25 3 5 -2 4 -11 -4 -12 -9 -17 -10
-17 -2 0 7 -4 9 -10 6 -5 -3 -10 0 -10 8 0 8 -7 18 -16 21 -10 4 -13 2 -9 -7
4 -6 0 -4 -8 5 -11 14 -16 15 -27 5 -10 -9 -11 -9 -6 1 5 7 1 12 -9 12 -9 0
-14 4 -11 9 3 5 -1 12 -10 15 -8 3 -13 2 -10 -3 12 -19 -35 3 -49 22 -9 13
-15 16 -15 8 0 -9 -7 -6 -19 8 -14 16 -21 18 -24 9 -3 -7 -6 -4 -6 7 -1 17 -3
17 -11 5 -8 -12 -10 -12 -10 5 0 17 -2 17 -10 5 -6 -10 -10 -11 -10 -2 0 6 -9
12 -20 12 -11 0 -20 5 -20 10 0 6 -9 10 -20 10 -11 0 -20 4 -20 9 0 5 -7 12
-16 15 -14 5 -15 4 -4 -9 11 -13 10 -14 -4 -9 -9 3 -16 13 -16 22 0 8 -3 12
-7 9 -3 -4 -16 1 -27 10 -15 13 -17 14 -8 2 9 -13 9 -16 -3 -16 -13 0 -19 10
-17 28 1 4 -8 4 -20 1 -16 -4 -19 -2 -13 9 8 12 6 12 -8 0 -11 -9 -17 -10 -17
-2 0 6 -7 11 -15 11 -8 0 -15 5 -15 10 0 6 -5 10 -11 10 -5 0 -7 -4 -4 -10 3
-5 3 -10 0 -10 -10 0 -35 27 -30 32 3 3 -2 5 -10 5 -8 0 -12 -4 -10 -8 3 -4
-2 -6 -11 -5 -8 1 -20 9 -24 17 -9 13 -34 19 -87 19 -13 0 -23 6 -23 13 0 8
-4 7 -10 -3 -8 -12 -10 -12 -10 -1 0 8 -3 11 -7 8 -3 -4 -17 0 -31 9 -13 9
-21 11 -18 5 4 -6 2 -11 -3 -11 -6 0 -11 8 -11 18 0 13 -2 14 -9 3 -5 -7 -11
-9 -14 -4 -3 5 -24 9 -46 8 -23 -1 -41 3 -41 7 0 4 -13 8 -28 8 -16 0 -32 3
-36 7 -12 12 -36 12 -29 0 3 -7 -4 -3 -17 8 -13 11 -20 14 -15 6 6 -11 4 -13
-9 -8 -10 4 -22 7 -27 7 -6 0 -8 4 -5 9 3 4 -5 7 -17 6 -12 -1 -22 -3 -22 -4
0 -1 -13 -4 -30 -6 -18 -3 -25 -1 -17 4 11 7 11 9 -2 14 -8 3 -17 1 -20 -6 -3
-9 -5 -9 -5 0 -1 7 -8 10 -18 6 -10 -4 -14 -2 -10 4 3 5 0 10 -8 10 -8 0 -12
-4 -9 -9 3 -4 1 -8 -5 -8 -5 0 -12 6 -14 13 -4 8 -6 8 -6 -2 -1 -11 -5 -10
-17 5 -8 10 -13 13 -9 7 3 -7 2 -13 -2 -13 -5 0 -15 6 -22 13 -11 10 -13 9 -7
-3 4 -8 0 -6 -10 5 -13 16 -16 17 -11 3 3 -10 1 -20 -5 -24 -6 -4 -9 -3 -5 2
3 5 -6 15 -19 21 -23 11 -24 10 -18 -10 6 -20 5 -20 -14 3 -12 14 -21 21 -22
16 0 -5 -8 -2 -17 5 -17 13 -17 12 -4 -4 14 -17 13 -18 -5 -15 -10 1 -25 10
-32 18 -11 13 -11 13 -6 -1 4 -14 -2 -16 -36 -13 -47 3 -63 11 -54 26 4 7 2 8
-4 4 -7 -4 -12 -15 -13 -24 0 -11 -3 -12 -6 -4 -2 6 -14 12 -24 12 -11 0 -17
-4 -14 -10 3 -5 4 -10 0 -10 -3 0 -10 10 -15 23 -9 22 -9 22 -10 -3z m987
-155 c0 -8 -4 -12 -9 -9 -5 3 -6 10 -3 15 9 13 12 11 12 -6z m63 -5 c0 -5 -2
-10 -4 -10 -3 0 -8 5 -11 10 -3 6 -1 10 4 10 6 0 11 -4 11 -10z m1336 -762
l29 -33 -32 29 c-31 28 -38 36 -30 36 2 0 16 -15 33 -32z m-5621 -1668 c3 -5
1 -10 -4 -10 -6 0 -11 5 -11 10 0 6 2 10 4 10 3 0 8 -4 11 -10z m6650 -398
c-3 -3 -11 0 -18 7 -9 10 -8 11 6 5 10 -3 15 -9 12 -12z m-6745 -102 c0 -5 -5
-10 -11 -10 -5 0 -7 5 -4 10 3 6 8 10 11 10 2 0 4 -4 4 -10z m6744 -630 c-6
-6 -10 -3 -10 10 0 13 4 16 10 10 7 -7 7 -13 0 -20z m-6345 -1239 c-2 -6 -10
2 -17 17 -11 25 -11 25 4 10 9 -9 15 -21 13 -27z m5791 -347 c0 -8 -19 -13
-24 -6 -3 5 1 9 9 9 8 0 15 -2 15 -3z m-780 -789 c-7 -9 -15 -13 -19 -10 -3 3
1 10 9 15 21 14 24 12 10 -5z m-307 -180 c-3 -9 -8 -14 -10 -11 -3 3 -2 9 2
15 9 16 15 13 8 -4z m-3303 -91 c0 -8 -19 -13 -24 -6 -3 5 1 9 9 9 8 0 15 -2
15 -3z m3132 -16 c-7 -7 -12 -8 -12 -2 0 14 12 26 19 19 2 -3 -1 -11 -7 -17z
m-167 -79 c-4 -5 -12 -9 -18 -8 -9 0 -8 2 1 6 6 2 9 10 6 15 -4 7 -2 8 5 4 6
-4 9 -12 6 -17z m-1868 -281 c-3 -8 -6 -5 -6 6 -1 11 2 17 5 13 3 -3 4 -12 1
-19z"/>
<path d="M1920 6469 c0 -5 5 -7 10 -4 6 3 10 8 10 11 0 2 -4 4 -10 4 -5 0 -10
-5 -10 -11z"/>
<path d="M4931 6454 c0 -11 3 -14 6 -6 3 7 2 16 -1 19 -3 4 -6 -2 -5 -13z"/>
<path d="M5155 6340 c-3 -5 -1 -10 4 -10 6 0 11 5 11 10 0 6 -2 10 -4 10 -3 0
-8 -4 -11 -10z"/>
<path d="M5191 6313 c-1 -17 16 -25 25 -12 4 7 3 9 -4 5 -5 -3 -13 0 -15 6 -4
9 -6 10 -6 1z"/>
<path d="M1180 5960 c-9 -6 -10 -10 -3 -10 6 0 15 5 18 10 8 12 4 12 -15 0z"/>
<path d="M1056 5833 c-6 -14 -5 -15 5 -6 7 7 10 15 7 18 -3 3 -9 -2 -12 -12z"/>
<path d="M6520 4819 c0 -5 5 -7 10 -4 6 3 10 8 10 11 0 2 -4 4 -10 4 -5 0 -10
-5 -10 -11z"/>
<path d="M270 4659 c0 -5 5 -7 10 -4 6 3 10 8 10 11 0 2 -4 4 -10 4 -5 0 -10
-5 -10 -11z"/>
<path d="M6728 4163 c7 -3 16 -2 19 1 4 3 -2 6 -13 5 -11 0 -14 -3 -6 -6z"/>
<path d="M60 3980 c0 -5 5 -10 11 -10 5 0 7 5 4 10 -3 6 -8 10 -11 10 -2 0 -4
-4 -4 -10z"/>
<path d="M10 3640 c0 -5 5 -10 11 -10 5 0 7 5 4 10 -3 6 -8 10 -11 10 -2 0 -4
-4 -4 -10z"/>
<path d="M6130 1355 c-11 -13 -10 -14 4 -9 9 3 16 10 16 15 0 13 -6 11 -20 -6z"/>
<path d="M5205 550 c-3 -6 1 -7 9 -4 18 7 21 14 7 14 -6 0 -13 -4 -16 -10z"/>
<path d="M1670 521 c0 -5 5 -13 10 -16 6 -3 10 -2 10 4 0 5 -4 13 -10 16 -5 3
-10 2 -10 -4z"/>
<path d="M1770 456 c0 -2 7 -7 16 -10 8 -3 12 -2 9 4 -6 10 -25 14 -25 6z"/>
<path d="M4710 306 c0 -2 7 -7 16 -10 8 -3 12 -2 9 4 -6 10 -25 14 -25 6z"/>
<path d="M2371 184 c0 -11 3 -14 6 -6 3 7 2 16 -1 19 -3 4 -6 -2 -5 -13z"/>
<path d="M2413 175 c0 -8 4 -15 9 -15 4 0 8 4 8 9 0 6 -4 12 -8 15 -5 3 -9 -1
-9 -9z"/>
</g>
</svg>
